<mxfile host="app.diagrams.net" modified="2022-02-13T08:21:37.553Z" agent="5.0 (Windows NT 10.0; Win64; x64) AppleWebKit/537.36 (KHTML, like Gecko) Chrome/98.0.4758.82 Safari/537.36" etag="Vdzl8zYQCi5M-NlN-GCO" version="16.5.6" type="github">
  <diagram id="AxXM6GgRUO09YLC4cVxi" name="Page-1">
    <mxGraphModel dx="2121" dy="2003" grid="1" gridSize="10" guides="1" tooltips="1" connect="1" arrows="1" fold="1" page="1" pageScale="1" pageWidth="827" pageHeight="1169" math="0" shadow="0">
      <root>
        <mxCell id="0" />
        <mxCell id="1" parent="0" />
        <mxCell id="eWaai_W9yoFiloG1qLoo-3" value="" style="rounded=0;whiteSpace=wrap;html=1;" vertex="1" parent="1">
          <mxGeometry x="-820" y="-680" width="810" height="520" as="geometry" />
        </mxCell>
        <mxCell id="eWaai_W9yoFiloG1qLoo-4" value="Designer.view" style="text;html=1;resizable=0;autosize=1;align=center;verticalAlign=middle;points=[];fillColor=none;strokeColor=none;rounded=0;" vertex="1" parent="1">
          <mxGeometry x="-820" y="-680" width="90" height="20" as="geometry" />
        </mxCell>
        <mxCell id="eWaai_W9yoFiloG1qLoo-5" value="" style="rounded=0;whiteSpace=wrap;html=1;" vertex="1" parent="1">
          <mxGeometry x="-810" y="-660" width="790" height="490" as="geometry" />
        </mxCell>
        <mxCell id="eWaai_W9yoFiloG1qLoo-6" value="appBuilding.vew" style="text;html=1;resizable=0;autosize=1;align=center;verticalAlign=middle;points=[];fillColor=none;strokeColor=none;rounded=0;" vertex="1" parent="1">
          <mxGeometry x="-810" y="-660" width="100" height="20" as="geometry" />
        </mxCell>
        <mxCell id="eWaai_W9yoFiloG1qLoo-7" value="" style="rounded=0;whiteSpace=wrap;html=1;dashed=1;fillColor=#dae8fc;strokeColor=#6c8ebf;" vertex="1" parent="1">
          <mxGeometry x="-800" y="-640" width="770" height="460" as="geometry" />
        </mxCell>
        <mxCell id="eWaai_W9yoFiloG1qLoo-9" value="" style="rounded=0;whiteSpace=wrap;html=1;" vertex="1" parent="1">
          <mxGeometry x="-790" y="-630" width="750" height="30" as="geometry" />
        </mxCell>
        <mxCell id="eWaai_W9yoFiloG1qLoo-8" value="Toolbar: oToolbarContainer" style="text;html=1;resizable=0;autosize=1;align=center;verticalAlign=middle;points=[];fillColor=none;strokeColor=none;rounded=0;" vertex="1" parent="1">
          <mxGeometry x="-790" y="-625" width="160" height="20" as="geometry" />
        </mxCell>
        <mxCell id="eWaai_W9yoFiloG1qLoo-10" value="" style="rounded=0;whiteSpace=wrap;html=1;dashed=1;dashPattern=1 1;fillColor=#d5e8d4;strokeColor=#82b366;" vertex="1" parent="1">
          <mxGeometry x="-790" y="-590" width="750" height="400" as="geometry" />
        </mxCell>
        <mxCell id="eWaai_W9yoFiloG1qLoo-11" value="" style="rounded=0;whiteSpace=wrap;html=1;" vertex="1" parent="1">
          <mxGeometry x="-780" y="-580" width="70" height="380" as="geometry" />
        </mxCell>
        <mxCell id="eWaai_W9yoFiloG1qLoo-12" value="Outline Container: createOutlineContainer()" style="text;html=1;resizable=0;autosize=1;align=center;verticalAlign=middle;points=[];fillColor=none;strokeColor=none;rounded=0;dashed=1;dashPattern=1 1;rotation=90;" vertex="1" parent="1">
          <mxGeometry x="-885" y="-460" width="250" height="20" as="geometry" />
        </mxCell>
        <mxCell id="eWaai_W9yoFiloG1qLoo-13" value="" style="rounded=0;whiteSpace=wrap;html=1;dashed=1;dashPattern=1 1;fillColor=#ffe6cc;strokeColor=#d79b00;" vertex="1" parent="1">
          <mxGeometry x="-700" y="-580" width="650" height="380" as="geometry" />
        </mxCell>
        <mxCell id="eWaai_W9yoFiloG1qLoo-14" value="" style="rounded=0;whiteSpace=wrap;html=1;" vertex="1" parent="1">
          <mxGeometry x="-690" y="-570" width="630" height="30" as="geometry" />
        </mxCell>
        <mxCell id="eWaai_W9yoFiloG1qLoo-15" value="Tabs Container: createTabsContainer()." style="text;html=1;resizable=0;autosize=1;align=center;verticalAlign=middle;points=[];fillColor=none;strokeColor=none;rounded=0;" vertex="1" parent="1">
          <mxGeometry x="-690" y="-565" width="220" height="20" as="geometry" />
        </mxCell>
        <mxCell id="eWaai_W9yoFiloG1qLoo-16" value="" style="rounded=0;whiteSpace=wrap;html=1;" vertex="1" parent="1">
          <mxGeometry x="-660" y="-530" width="600" height="260" as="geometry" />
        </mxCell>
        <mxCell id="eWaai_W9yoFiloG1qLoo-17" value="Diagram Container: createDiagramContainer()" style="text;html=1;resizable=0;autosize=1;align=center;verticalAlign=middle;points=[];fillColor=none;strokeColor=none;rounded=0;" vertex="1" parent="1">
          <mxGeometry x="-660" y="-530" width="260" height="20" as="geometry" />
        </mxCell>
        <mxCell id="eWaai_W9yoFiloG1qLoo-18" value="" style="rounded=0;whiteSpace=wrap;html=1;" vertex="1" parent="1">
          <mxGeometry x="-670" y="-510" width="600" height="250" as="geometry" />
        </mxCell>
        <mxCell id="eWaai_W9yoFiloG1qLoo-19" value="Script Editor Container: createScriptEditorContainer()" style="text;html=1;resizable=0;autosize=1;align=center;verticalAlign=middle;points=[];fillColor=none;strokeColor=none;rounded=0;" vertex="1" parent="1">
          <mxGeometry x="-670" y="-510" width="300" height="20" as="geometry" />
        </mxCell>
        <mxCell id="eWaai_W9yoFiloG1qLoo-20" value="" style="rounded=0;whiteSpace=wrap;html=1;" vertex="1" parent="1">
          <mxGeometry x="-680" y="-490" width="600" height="240" as="geometry" />
        </mxCell>
        <mxCell id="eWaai_W9yoFiloG1qLoo-21" value="Page Container: createPageContainer()" style="text;html=1;resizable=0;autosize=1;align=center;verticalAlign=middle;points=[];fillColor=none;strokeColor=none;rounded=0;" vertex="1" parent="1">
          <mxGeometry x="-680" y="-490" width="230" height="20" as="geometry" />
        </mxCell>
        <mxCell id="eWaai_W9yoFiloG1qLoo-22" value="" style="rounded=0;whiteSpace=wrap;html=1;" vertex="1" parent="1">
          <mxGeometry x="-690" y="-240" width="630" height="30" as="geometry" />
        </mxCell>
        <mxCell id="eWaai_W9yoFiloG1qLoo-23" value="Info Page Container: createInfoPageContainer" style="text;html=1;resizable=0;autosize=1;align=center;verticalAlign=middle;points=[];fillColor=none;strokeColor=none;rounded=0;" vertex="1" parent="1">
          <mxGeometry x="-690" y="-235" width="260" height="20" as="geometry" />
        </mxCell>
        <mxCell id="eWaai_W9yoFiloG1qLoo-24" value="&lt;h1&gt;story.view&lt;/h1&gt;" style="rounded=0;whiteSpace=wrap;html=1;" vertex="1" parent="1">
          <mxGeometry x="-660" y="-460" width="560" height="190" as="geometry" />
        </mxCell>
        <mxCell id="eWaai_W9yoFiloG1qLoo-25" value="Vertical Layout" style="rounded=0;whiteSpace=wrap;html=1;dashed=1;fillColor=#dae8fc;strokeColor=#6c8ebf;" vertex="1" parent="1">
          <mxGeometry x="-820" y="-840" width="120" height="30" as="geometry" />
        </mxCell>
        <mxCell id="eWaai_W9yoFiloG1qLoo-26" value="Splitter" style="rounded=0;whiteSpace=wrap;html=1;dashed=1;fillColor=#d5e8d4;strokeColor=#82b366;dashPattern=1 1;" vertex="1" parent="1">
          <mxGeometry x="-820" y="-800" width="120" height="30" as="geometry" />
        </mxCell>
        <mxCell id="eWaai_W9yoFiloG1qLoo-27" value="Horizontal Splitter" style="rounded=0;whiteSpace=wrap;html=1;dashed=1;dashPattern=1 1;fillColor=#ffe6cc;strokeColor=#d79b00;" vertex="1" parent="1">
          <mxGeometry x="-820" y="-760" width="120" height="30" as="geometry" />
        </mxCell>
      </root>
    </mxGraphModel>
  </diagram>
</mxfile>
